<?xml version="1.0" encoding="UTF-8"?>
<svg version="1.1" viewBox="0 0 1600 1600" width="400" height="400" xmlns="http://www.w3.org/2000/svg">
<path transform="translate(0)" d="m0 0h1600v1600h-1600z" fill="#008EBC"/>
<path transform="translate(1143,260)" d="m0 0h302l-1 6-7 18-22 61-16 44-15 41-20 55-13 36-16 44-9 24-10 29-11 29-17 47-20 55-11 30-17 47-18 49-7 20-9 24-7 20-21 57-12 33-8 17-9 10-9 7-10 4-10 2-294 1-3-2 16-8 9-7 6-8 6-12 11-29 14-39 28-77 11-30 15-42 14-38 11-30 11-31 11-30 16-44 11-30 20-55 18-50 14-38 16-44 14-39 11-30 10-28 16-44 9-23z" fill="#FDFDFD"/>
<path transform="translate(783,530)" d="m0 0h23l-3 2-13 5-10 6-8 9-6 10-23 64-17 46-6 17-19 52-10 28-13 36-14 38-9 25-14 39-21 57-9 25-13 35-7 20-10 28-9 24-21 58-17 46-7 20-12 33-21 57-10 28-2 2h-302l1-6 11-31 9-24 18-50 16-44 14-38 9-25 11-30 17-47 8-21 8-23 11-30 18-50 11-30 12-33 14-39 9-24 9-25 11-30 15-42 11-29 36-100 8-16 9-10 5-4 10-5 6-2 7-1z" fill="#FDFDFD"/>
<path transform="translate(829,542)" d="m0 0h11l13 3 14 8 9 9 8 14 12 34 9 25 14 38 10 28 8 21 4 13v9l-10 29-9 24-17 47-15 40-10 29-11 30-13 36-9 25-8 21-6 11-9 10-11 7-10 4-12 2-12-2-13-5-11-8-8-10-5-12-15-40-10-28-12-33-7-19-9-25-5-12v-8l10-27 14-39 11-31 9-24 9-25 12-33 11-30 9-25 14-39 8-18 6-8 8-7 12-6z" fill="#FDFDFD"/>
</svg>
